<?xml version="1.0" encoding="utf-8"?>
<svg xmlns="http://www.w3.org/2000/svg" width="103" height="116" id="svg4099" version="1.1">
  <g id="layer1" transform="translate(0,52)">
    <path id="path4389" d="M 83.796985,-42.194421 51.069712,29.439434" style="fill:none;stroke:#000000;stroke-width:4;stroke-linecap:round;stroke-linejoin:round;stroke-miterlimit:4;stroke-opacity:1;stroke-dasharray:none"/>
    <path id="path4391" d="m 71.178463,-43.161199 25.237044,0" style="fill:none;stroke:#000000;stroke-width:4;stroke-linecap:round;stroke-linejoin:round;stroke-miterlimit:4;stroke-opacity:1;stroke-dasharray:none"/>
    <path id="path4393" d="m 66.640001,-24.71105 13.223058,9.789946" style="fill:none;stroke:#000000;stroke-width:4;stroke-linecap:round;stroke-linejoin:round;stroke-miterlimit:4;stroke-opacity:1;stroke-dasharray:none"/>
    <path style="fill:none;stroke:#000000;stroke-width:2.36843109;stroke-linecap:round;stroke-linejoin:round;stroke-miterlimit:4;stroke-opacity:1;stroke-dasharray:none" id="path3066-7" d="M 26.998013,55.744612 A 9.272727,9.272727 0 1 1 18.363635,43.090909" transform="matrix(-1.6888818,0,0,1.6888818,82.83649,-43.117116)"/>
    <path style="fill:none;stroke:#000000;stroke-width:4;stroke-linecap:round;stroke-linejoin:round;stroke-miterlimit:4;stroke-opacity:1;stroke-dasharray:none" d="M 17.796985,-42.194421 51.25153,29.075798" id="path4551"/>
    <path style="fill:none;stroke:#000000;stroke-width:4;stroke-linecap:round;stroke-linejoin:round;stroke-miterlimit:4;stroke-opacity:1;stroke-dasharray:none" d="m 5.178463,-43.161199 25.237044,0" id="path4553"/>
    <path style="fill:none;stroke:#000000;stroke-width:4;stroke-linecap:round;stroke-linejoin:round;stroke-miterlimit:4;stroke-opacity:1;stroke-dasharray:none" d="m 20.849804,-21.23283 16.439818,0.651689" id="path4555"/>
  </g>
  <g id="svg2985" transform="matrix(1, 0, 0, 1, -76.667664, -68.702187)">
    <g id="group-1" transform="matrix(1, 0, 0, 1, 112.304474, 28.569035)">
      <path style="fill:none;stroke:#000000;stroke-width:10.50856675;stroke-linecap:round;stroke-linejoin:round;stroke-miterlimit:4;stroke-opacity:1;stroke-dasharray:none" id="path2993" d="m 62.90909,35.727272 a 29.545454,19.181818 0 1 1 -59.090908,0 29.545454,19.181818 0 1 1 59.090908,0 z" transform="matrix(0.46946437,0,0,0.30862448,0.31239117,45.017839)"/>
    </g>
  </g>
</svg>